<svg width="24" height="20" viewBox="0 0 24 20" fill="none" xmlns="http://www.w3.org/2000/svg">
<path d="M0 4.8C0 3.11984 0 2.27976 0.32698 1.63803C0.614601 1.07354 1.07354 0.614601 1.63803 0.32698C2.27976 0 3.11984 0 4.8 0H19.2C20.8802 0 21.7202 0 22.362 0.32698C22.9265 0.614601 23.3854 1.07354 23.673 1.63803C24 2.27976 24 3.11984 24 4.8V15.2C24 16.8802 24 17.7202 23.673 18.362C23.3854 18.9265 22.9265 19.3854 22.362 19.673C21.7202 20 20.8802 20 19.2 20H4.8C3.11984 20 2.27976 20 1.63803 19.673C1.07354 19.3854 0.614601 18.9265 0.32698 18.362C0 17.7202 0 16.8802 0 15.2V4.8Z" fill="#E5E939"/>
<path d="M0 4.8C0 3.11984 0 2.27976 0.32698 1.63803C0.614601 1.07354 1.07354 0.614601 1.63803 0.32698C2.27976 0 3.11984 0 4.8 0H19.2C20.8802 0 21.7202 0 22.362 0.32698C22.9265 0.614601 23.3854 1.07354 23.673 1.63803C24 2.27976 24 3.11984 24 4.8V10H0V4.8Z" fill="#5E64EA"/>
</svg>
