<svg width="22" height="22" viewBox="0 0 22 22" fill="none" xmlns="http://www.w3.org/2000/svg">
<g clip-path="url(#clip0)">
<path d="M5.72927 17.8751C4.26169 17.8751 2.95635 16.9355 2.48243 15.5367L2.45035 15.4312C2.33852 15.0609 2.29177 14.7492 2.29177 14.4376V8.18774L0.0679346 15.6109C-0.218065 16.7027 0.433685 17.8347 1.52727 18.1363L15.7017 21.9322C15.8786 21.9781 16.0555 22.0001 16.2297 22.0001C17.1427 22.0001 17.9769 21.3942 18.2106 20.5013L19.0365 17.8751H5.72927Z" fill="white"/>
<path d="M8.25008 8.24991C9.26116 8.24991 10.0834 7.42766 10.0834 6.41658C10.0834 5.4055 9.26116 4.58325 8.25008 4.58325C7.239 4.58325 6.41675 5.4055 6.41675 6.41658C6.41675 7.42766 7.239 8.24991 8.25008 8.24991Z" fill="white"/>
<path d="M19.7084 1.83325H5.95842C4.69525 1.83325 3.66675 2.86175 3.66675 4.12492V14.2083C3.66675 15.4714 4.69525 16.4999 5.95842 16.4999H19.7084C20.9716 16.4999 22.0001 15.4714 22.0001 14.2083V4.12492C22.0001 2.86175 20.9716 1.83325 19.7084 1.83325ZM5.95842 3.66659H19.7084C19.9614 3.66659 20.1667 3.87192 20.1667 4.12492V10.6323L17.271 7.2535C16.9639 6.89325 16.5193 6.70075 16.0417 6.68975C15.5669 6.6925 15.1214 6.90334 14.8171 7.26817L11.4126 11.3547L10.3034 10.2483C9.67642 9.62125 8.65617 9.62125 8.03008 10.2483L5.50008 12.7773V4.12492C5.50008 3.87192 5.70542 3.66659 5.95842 3.66659Z" fill="white"/>
</g>
<defs>
<clipPath id="clip0">
<rect width="22" height="22" fill="white"/>
</clipPath>
</defs>
</svg>
