<svg width="32" height="32" viewBox="0 0 32 32" fill="none" xmlns="http://www.w3.org/2000/svg">
<g clip-path="url(#clip0)">
<path d="M31.9691 9.40809C31.8941 7.7078 31.6192 6.53888 31.2253 5.52598C30.819 4.45082 30.1939 3.48823 29.3749 2.68802C28.5747 1.87537 27.6057 1.2439 26.543 0.843915C25.5243 0.450039 24.3614 0.175083 22.6611 0.100117C20.9482 0.0188025 20.4044 0 16.0598 0C11.7152 0 11.1714 0.0188025 9.46473 0.0937683C7.76444 0.168734 6.59551 0.443934 5.58286 0.837566C4.50746 1.2439 3.54487 1.86902 2.74466 2.68802C1.93201 3.48823 1.30078 4.45717 0.900555 5.51988C0.50668 6.53888 0.231724 7.70146 0.156758 9.40174C0.0754431 11.1147 0.0566406 11.6585 0.0566406 16.0031C0.0566406 20.3477 0.0754431 20.8915 0.150409 22.5982C0.225375 24.2984 0.500575 25.4674 0.89445 26.4803C1.30078 27.5554 1.93201 28.518 2.74466 29.3182C3.54487 30.1309 4.51381 30.7624 5.57652 31.1623C6.59551 31.5562 7.75809 31.8312 9.45862 31.9061C11.165 31.9813 11.7091 31.9999 16.0537 31.9999C20.3983 31.9999 20.9421 31.9813 22.6487 31.9061C24.349 31.8312 25.5179 31.5562 26.5306 31.1623C28.6811 30.3309 30.3814 28.6306 31.2129 26.4803C31.6065 25.4613 31.8817 24.2984 31.9567 22.5982C32.0316 20.8915 32.0504 20.3477 32.0504 16.0031C32.0504 11.6585 32.0441 11.1147 31.9691 9.40809ZM29.0874 22.4731C29.0186 24.0359 28.7561 24.8799 28.5373 25.4425C27.9996 26.8365 26.8932 27.943 25.4991 28.4807C24.9365 28.6995 24.0865 28.962 22.5298 29.0306C20.8419 29.1058 20.3357 29.1243 16.0661 29.1243C11.7965 29.1243 11.2839 29.1058 9.6022 29.0306C8.0394 28.962 7.19548 28.6995 6.63287 28.4807C5.93914 28.2243 5.30766 27.8179 4.79511 27.2866C4.26376 26.7677 3.85743 26.1426 3.60103 25.4488C3.38224 24.8862 3.11974 24.0359 3.05112 22.4795C2.97591 20.7917 2.95735 20.2852 2.95735 16.0156C2.95735 11.7459 2.97591 11.2334 3.05112 9.55192C3.11974 7.98911 3.38224 7.14519 3.60103 6.58258C3.85743 5.8886 4.26376 5.25737 4.80146 4.74458C5.32012 4.21323 5.94524 3.8069 6.63922 3.55074C7.20183 3.33195 8.0521 3.06945 9.60855 3.00059C11.2964 2.92562 11.8028 2.90682 16.0722 2.90682C20.3482 2.90682 20.8544 2.92562 22.5361 3.00059C24.0989 3.06945 24.9428 3.33195 25.5055 3.55074C26.1992 3.8069 26.8307 4.21323 27.3432 4.74458C27.8746 5.26348 28.2809 5.8886 28.5373 6.58258C28.7561 7.14519 29.0186 7.99521 29.0874 9.55192C29.1624 11.2397 29.1812 11.7459 29.1812 16.0156C29.1812 20.2852 29.1624 20.7853 29.0874 22.4731Z" fill="white"/>
<path d="M16.0602 7.78284C11.522 7.78284 7.83984 11.4647 7.83984 16.0032C7.83984 20.5417 11.522 24.2236 16.0602 24.2236C20.5987 24.2236 24.2806 20.5417 24.2806 16.0032C24.2806 11.4647 20.5987 7.78284 16.0602 7.78284ZM16.0602 21.3355C13.116 21.3355 10.7279 18.9476 10.7279 16.0032C10.7279 13.0588 13.116 10.6709 16.0602 10.6709C19.0046 10.6709 21.3925 13.0588 21.3925 16.0032C21.3925 18.9476 19.0046 21.3355 16.0602 21.3355Z" fill="white"/>
<path d="M26.5239 7.45777C26.5239 8.51755 25.6646 9.37685 24.6046 9.37685C23.5448 9.37685 22.6855 8.51755 22.6855 7.45777C22.6855 6.39775 23.5448 5.5387 24.6046 5.5387C25.6646 5.5387 26.5239 6.39775 26.5239 7.45777Z" fill="white"/>
</g>
<defs>
<clipPath id="clip0">
<rect width="32" height="32" fill="white"/>
</clipPath>
</defs>
</svg>
