<svg width="116" height="29" viewBox="0 0 116 29" fill="none" xmlns="http://www.w3.org/2000/svg">
<path d="M62.3209 8.30396L62.1926 8.41618H56.1963L56.3246 8.30396H62.3209Z" fill="white"/>
<path d="M64.6297 0.191811C65.0946 0.929267 65.5756 1.69879 66.0246 2.42021C64.806 4.36004 63.5555 6.36399 62.3209 8.30382H56.3086L51.9796 15.1493L43.6746 28.2792L37.6461 18.9649L40.0671 15.2616L44.4281 8.30382H32.0987L28.3149 2.42021C28.7639 1.69879 29.2609 0.913237 29.7258 0.175781H64.6297V0.191811Z" fill="white"/>
<path d="M44.4282 8.30399H32.0988L28.315 2.42037C28.7639 1.69895 29.261 0.913397 29.7259 0.175942H64.6297L64.5015 0.0637207H29.4694H28.6357L28.5074 0.175942C28.0424 0.913397 27.5615 1.68292 27.0965 2.42037L30.8803 8.30399L31.0085 8.41621H31.8423H43.1455L38.8487 15.2617L36.4277 18.965L42.4721 28.2794L42.6645 28.4718H43.4983L43.6906 28.2794L37.6462 18.965L40.0672 15.2617L44.4282 8.30399Z" fill="#D1D1D1"/>
<path d="M20.7634 12.3599L20.571 12.5522H19.7373L19.5449 12.3599C19.8976 12.9049 21.3887 15.3578 21.3887 15.3418L21.4047 15.3578L21.5811 15.5341H22.4148L22.6072 15.3257C22.6072 15.3578 21.1001 12.9049 20.7634 12.3599Z" fill="#61200F"/>
<path d="M28.0424 9.37817C28.9242 10.7729 30.768 13.7227 31.73 15.2618C34.2151 19.2056 37.582 24.5762 39.9549 28.3757H16.0818L19.9137 22.2997C22.1743 22.2997 26.5674 22.2997 26.9842 22.2997L23.4249 16.6886L28.0424 9.37817Z" fill="#9D2616"/>
<path d="M16.0818 28.3596L19.9137 22.2836C22.1743 22.2836 26.5674 22.2836 26.9842 22.2836L23.4249 16.6726L28.0264 9.37817L27.834 9.18579H27.0003L26.8079 9.37817L22.2064 16.6726L25.7016 22.1875C24.2426 22.1875 21.3727 22.1875 19.6571 22.1875H18.8234L18.6952 22.2997L14.8633 28.3757V28.4879H15.697H39.9549V28.3757H16.0818V28.3596Z" fill="#5E1E0D"/>
<path d="M14.5426 22.2836V22.1714C15.7451 22.1714 16.9636 22.1714 18.1661 22.1714V22.2836C17.14 22.2836 15.9375 22.2836 14.5426 22.2836Z" fill="#6B210C"/>
<path d="M19.2563 0.191811H22.2705L22.1422 0.0795898H18.9998H18.1661L18.0378 0.191811C15.2 4.71274 11.4482 10.6925 8.57832 15.2616C6.09321 19.2053 2.72628 24.5759 0.353394 28.3754V28.4877H1.18711H14.2059L14.3342 28.3754H1.5719C3.94479 24.592 7.32775 19.2214 9.79683 15.2616C12.6507 10.6925 16.4185 4.71274 19.2563 0.191811Z" fill="#61200F"/>
<path d="M22.2705 0.191811C23.0722 1.45831 23.8898 2.77291 24.7235 4.0875C25.5573 5.40209 26.3749 6.71669 27.1606 7.98319L22.6072 15.3417C22.6232 15.3577 21.1161 12.9209 20.7634 12.3598C20.4107 12.9049 19.2723 14.7325 19.0158 15.1493C17.8614 16.993 15.8092 20.2634 14.5426 22.2834C15.9375 22.2834 17.156 22.2834 18.1661 22.2834L14.3342 28.3594H1.5719C3.94478 24.5759 7.32775 19.2053 9.79683 15.2455C12.6667 10.6765 16.4185 4.6967 19.2563 0.175781H22.2705V0.191811Z" fill="#9D2616"/>
<path d="M83.0195 7.80704C84.3021 5.81912 85.5848 4.10374 86.6109 2.70899C87.2522 1.9074 87.8294 1.23408 88.3264 0.817253C88.631 0.560747 88.9036 0.40043 89.096 0.40043C90.2504 0.336303 91.0841 1.53867 90.7153 1.31423C90.0099 0.977568 88.615 2.93343 87.7492 4.05564C86.8354 5.19389 85.9856 6.41229 84.9755 7.9353C83.1478 10.6767 81.4964 13.4021 80.9673 14.7167C82.0735 14.6365 85.713 11.0935 86.6269 10.2438C86.7552 10.1477 86.8514 10.308 86.7873 10.3721C85.7932 11.4943 82.0735 15.39 80.9031 15.7587C80.6466 15.8389 80.4221 15.7748 80.2137 15.6786C79.877 15.4862 79.4281 15.0533 79.4281 14.6044C79.4281 14.1876 79.877 13.1135 80.9031 11.2378C80.1816 11.8149 75.9008 15.8068 74.8266 15.8068C74.4579 15.8068 73.7845 14.877 73.7845 14.396C73.7845 13.2738 75.6443 10.6286 77.8408 9.18576C79.4441 8.12767 80.855 7.47038 82.0896 7.47038C82.5064 7.45435 82.8431 7.59863 83.0195 7.80704ZM82.8431 8.09561C82.5706 8.01545 82.2659 8.01545 81.9773 8.09561C81.1116 8.32005 79.7327 9.37814 78.5944 10.5004C76.7346 12.2638 75.3397 14.4441 75.5 14.5403C75.7565 14.6846 79.0593 12.3761 81.4964 10.2759L82.8431 8.09561Z" fill="white"/>
<path d="M85.713 14.4922C85.697 14.7487 85.8733 14.893 86.3383 14.893C87.8454 14.893 91.6452 12.0073 93.7455 10.2759C93.8097 10.2278 93.9539 10.34 93.8898 10.4042C92.3346 11.8631 88.2142 15.8229 85.4565 15.8229C84.8152 15.8229 83.9814 15.0694 83.9814 14.5243C83.9814 14.0273 84.1097 13.6105 84.27 13.1616C84.7671 11.9753 85.8252 10.6767 87.1239 9.57052C88.8394 8.14371 90.6832 7.50244 91.5811 7.50244C91.8857 7.50244 92.8477 7.98339 92.8477 8.56053C92.8477 9.84306 88.8715 12.825 86.5467 12.8891C86.178 13.2899 85.7771 13.9472 85.713 14.4922ZM86.8193 12.4402C88.631 12.2318 92.0621 8.88116 92.1903 8.07958C89.8816 8.83307 87.5087 11.334 86.8193 12.4402Z" fill="white"/>
<path d="M98.5394 2.70899C99.1647 1.9074 99.7419 1.23408 100.255 0.817253C100.56 0.560747 100.832 0.40043 101.025 0.40043C102.179 0.336303 103.013 1.53868 102.628 1.31423C101.906 0.977568 100.56 2.93343 99.6457 4.05564C98.7479 5.19389 97.8981 6.41229 96.872 7.9353C95.0603 10.6767 93.5051 13.3059 93.008 14.6365C93.9059 14.7327 97.337 11.3661 98.5715 10.2439C98.6998 10.1477 98.7799 10.308 98.7158 10.3721C97.7057 11.5264 94.0983 15.3098 92.8477 15.7587C92.5752 15.8549 92.3667 15.7748 92.1904 15.6786C92.03 15.5984 91.5651 15.1656 91.4368 14.8449C91.4208 14.7968 91.3727 14.7648 91.3727 14.5403C91.3727 13.9151 92.3186 11.9111 94.8518 7.95133C96.1345 5.91531 97.4492 4.11977 98.5394 2.70899Z" fill="white"/>
<path d="M105.257 0.817253C105.562 0.560747 105.834 0.40043 106.027 0.40043C107.181 0.336303 108.015 1.53868 107.63 1.31423C106.973 1.00963 105.738 2.66089 104.824 3.84723C108.159 3.68691 112.536 3.84723 115.502 4.47247C115.663 4.52056 115.759 4.55262 115.502 4.53659C111.398 4.1839 107.598 4.19993 104.135 4.72897C103.365 5.67484 102.676 6.71689 101.858 7.9353C100.047 10.6767 98.4913 13.3059 97.9943 14.6365C98.8922 14.7327 102.323 11.3661 103.558 10.2439C103.686 10.1477 103.766 10.308 103.702 10.3721C102.692 11.5264 99.0846 15.3098 97.834 15.7587C97.5614 15.8549 97.353 15.7748 97.1766 15.6786C97.0163 15.5984 96.5513 15.1656 96.4231 14.8449C96.407 14.7968 96.3589 14.7648 96.3589 14.5403C96.3589 13.9151 97.2889 11.8791 99.8381 7.95133C100.399 7.10165 100.992 6.18785 101.762 5.17786C99.79 5.57865 98.5715 6.57261 99.1006 6.87721C98.7639 6.87721 98.0584 6.47642 97.9943 5.81912C97.9142 4.88929 100.191 4.31215 102.516 4.03961C104.151 1.9074 104.728 1.23408 105.257 0.817253Z" fill="white"/>
<path d="M107.406 11.6867C106.78 12.3119 102.74 15.7908 101.874 15.7908C101.826 15.7908 101.73 15.7427 101.682 15.7267C101.313 15.5343 100.768 14.7487 100.768 14.3319C100.768 12.0715 105.514 7.45435 109.33 7.45435C110.115 7.45435 111.157 7.79101 111.157 8.75291C111.157 9.1056 110.965 9.4583 110.757 9.73084C110.709 9.74687 110.676 9.73084 110.692 9.7148C110.789 9.52242 110.917 9.28195 110.917 8.96132C110.917 8.33609 110.516 8.03148 109.907 8.06355C108.704 8.12767 107.197 8.99338 105.851 10.1316C103.878 11.8149 102.323 14.4281 102.516 14.5243C102.564 14.5403 102.596 14.5403 102.66 14.5243C103.349 14.2999 106.251 12.1997 107.326 11.2859C107.694 10.9492 109.041 9.65068 109.57 9.36211C109.987 9.1537 110.692 10.2919 110.612 10.5485C110.516 10.34 108.64 12.6005 108.015 13.9311C107.887 14.2197 107.807 14.4762 107.807 14.6365C109.105 14.2678 112.071 11.4302 113.37 10.2278C113.466 10.1316 113.578 10.2919 113.514 10.3561C111.703 12.328 108.336 15.7908 107.085 15.7908C106.989 15.7908 106.877 15.7427 106.732 15.6625C106.444 15.5022 106.043 15.0533 106.043 14.6846C106.043 14.4762 106.123 14.2357 106.203 13.9151C106.46 13.1616 107.021 12.1997 107.406 11.6867Z" fill="white"/>
<path d="M62.1926 13.6586C62.4973 13.4021 62.7698 13.2417 62.9622 13.2417C64.1166 13.1776 64.9503 14.38 64.5655 14.1555C63.9082 13.8509 62.6736 15.5022 61.7597 16.6885C65.0946 16.5282 69.4716 16.6885 72.4377 17.3138C72.598 17.3619 72.6942 17.3939 72.4377 17.3779C68.3333 17.0252 64.5334 17.0412 61.0703 17.5703C60.3007 18.5161 59.6113 19.5582 58.7936 20.7766C56.9819 23.518 55.4267 26.1472 54.9297 27.4778C55.8275 27.574 59.2586 24.2074 60.4931 23.0852C60.6214 22.989 60.7016 23.1493 60.6374 23.2134C59.6273 24.3677 56.0199 28.1512 54.7693 28.6C54.4968 28.6962 54.2884 28.6161 54.112 28.5199C53.9517 28.4397 53.4867 28.0069 53.3584 27.6862C53.3424 27.6381 53.2943 27.6061 53.2943 27.3816C53.2943 26.7564 54.2242 24.7204 56.7735 20.7926C57.3346 19.943 57.9278 19.0292 58.6974 18.0192C56.7254 18.42 55.5069 19.4139 56.036 19.7185C55.6993 19.7185 54.9938 19.3177 54.9297 18.6604C54.8495 17.7306 57.1262 17.1535 59.451 16.8809C61.0863 14.7327 61.6635 14.0754 62.1926 13.6586Z" fill="white"/>
<path d="M59.6755 27.3177C59.6594 27.5742 59.8358 27.7185 60.3008 27.7185C61.8079 27.7185 65.6077 24.8328 67.708 23.1014C67.7721 23.0533 67.9164 23.1655 67.8523 23.2296C66.2971 24.6885 62.1766 28.6483 59.4189 28.6483C58.7776 28.6483 57.9439 27.8948 57.9439 27.3498C57.9439 26.8528 58.0722 26.4359 58.2325 25.9871C58.7295 24.8007 59.7877 23.5022 61.0864 22.396C62.8019 20.9691 64.6457 20.3279 65.5435 20.3279C65.8482 20.3279 66.8102 20.8088 66.8102 21.386C66.8102 22.6685 62.834 25.6504 60.5092 25.7145C60.1404 26.1153 59.7396 26.7886 59.6755 27.3177ZM60.7817 25.2656C62.5935 25.0572 66.0245 21.7066 66.1528 20.905C63.844 21.6585 61.4551 24.1755 60.7817 25.2656Z" fill="white"/>
<path d="M67.6118 27.7342C69.5197 27.5258 72.9989 24.7203 75.019 23.0851C75.0832 23.037 75.2275 23.1332 75.1633 23.1813C73.3837 24.8646 69.3754 28.616 66.8101 28.616C66.1528 28.616 65.3992 27.9908 65.303 27.3335C65.287 27.1731 65.287 26.9647 65.3511 26.7082C65.5115 25.8425 66.265 24.3836 67.6599 23.037C69.3594 21.3537 71.4597 20.2795 72.9187 20.2795C73.3997 20.2795 74.1052 20.9849 74.1052 21.2895C74.1052 22.0751 73.0951 22.8446 72.4057 23.3576C72.3576 23.4057 72.2614 23.3576 72.3095 23.2935C72.6462 22.9568 73.4959 21.3216 73.3195 21.1773C71.107 21.2254 67.0346 25.9066 67.0346 27.3495C67.0186 27.7182 67.4354 27.7503 67.6118 27.7342Z" fill="white"/>
<path d="M75.1312 25.4097C77.4881 22.9088 81.0635 20.4078 81.7689 20.4078C82.2499 20.4078 82.9073 21.5301 82.6668 21.7545C82.1216 22.1713 78.9631 26.548 78.899 27.5259C80.1816 27.1732 83.1317 24.2875 84.4304 23.0691C84.5747 22.9729 84.6869 23.1332 84.6228 23.1973C83.1317 24.8005 80.6626 27.3816 79.1074 28.2954C78.9471 28.3916 78.6264 28.5519 78.402 28.6C78.3218 28.616 78.2416 28.6481 78.0973 28.6C77.6805 28.4557 77.1995 27.7343 77.1995 27.3495C77.1995 26.1632 79.4121 22.8447 80.5023 21.8828C79.2838 22.4439 77.5202 23.7104 76.0291 25.1211C75.8207 25.3135 74.9869 26.1792 74.9869 26.1792C74.3617 26.8365 73.9127 27.4618 73.7043 27.9587C73.5119 28.3756 73.56 28.6641 74.041 28.7283C73.7845 28.8245 73.56 28.7443 73.3516 28.6321C73.2073 28.5679 72.7423 28.1351 72.598 27.7984C72.5339 27.6381 72.582 26.9648 73.2073 25.6021C74.3135 23.1012 77.1193 19.0291 79.0754 16.432C79.6365 15.6625 80.6947 14.396 81.5765 13.6585C81.9132 13.402 82.2018 13.2898 82.3621 13.2898C83.5165 13.2898 84.3342 14.5082 83.9334 14.2838C83.5165 14.0753 82.8912 14.5082 82.1056 15.406C80.0534 17.6985 76.7987 22.0751 75.1312 25.4097Z" fill="white"/>
<path d="M88.4547 27.51C89.7534 27.1573 92.7195 24.3197 94.0502 23.0692C94.1785 22.973 94.2747 23.1333 94.2105 23.1975C92.3988 25.1694 89.0319 28.5841 87.7813 28.5841C87.5729 28.5841 87.3484 28.3917 87.14 28.1512C86.9155 27.8787 86.7712 27.5741 86.7712 27.3497C86.7712 26.1633 89.1762 22.7005 90.2504 21.7386C88.5509 22.5081 85.5046 25.009 83.9655 26.6763C83.6929 26.9489 83.4524 27.2535 83.2119 27.542C82.6507 28.1993 82.5064 28.7604 82.8111 28.9047C82.1858 29.049 81.6888 28.3917 81.5284 27.7825C81.4803 27.6382 81.5926 27.0771 82.1056 26.1313C82.6026 25.1533 83.3883 23.9349 84.0777 22.973C84.8312 21.9149 85.7291 20.8087 86.2742 20.408C86.3544 20.3278 86.4826 20.3118 86.5468 20.3118C87.0598 20.3118 87.8454 21.1134 87.8454 21.6424C87.8454 21.7226 87.7653 21.6264 87.5889 21.5943C87.3163 21.5783 86.5468 22.444 85.9375 23.2456C84.9595 24.5281 83.8853 26.0671 83.5807 26.6443C83.8051 26.3076 84.2059 25.8908 84.6388 25.49C86.9636 23.2135 90.6031 20.408 91.3086 20.408C91.8056 20.408 92.4629 21.5302 92.2064 21.7546C91.7094 22.1554 88.5028 26.532 88.4547 27.51Z" fill="white"/>
<path d="M91.9659 28.6002C91.6292 28.5041 91.1161 27.975 91.1161 27.6063C91.1161 26.4039 94.1304 21.883 95.4451 20.8249C95.5413 20.7287 95.6695 20.6966 95.7497 20.6966C96.2307 20.6966 97.0484 21.5303 97.0484 22.0433C97.0484 22.1235 96.9522 22.0273 96.7758 21.9952C95.9261 21.915 93.0882 26.6444 92.8317 27.4941C94.0983 27.1574 97.1285 24.2877 98.3951 23.0533C98.5394 22.9571 98.6517 23.1174 98.5875 23.1815C96.7758 25.1374 93.489 28.5041 92.2064 28.6163C92.1262 28.6323 92.0621 28.6323 91.9659 28.6002ZM98.8922 18.1957C99.0846 18.4041 99.1968 18.7087 99.1166 18.7087C99.0685 18.7087 98.9082 18.6286 98.6837 18.7247C98.331 18.869 97.3851 19.7187 97.1285 20.0714C96.8399 20.4401 96.407 20.0073 96.375 19.6386C96.3589 19.0293 97.1446 17.6827 97.6737 17.5224C98.1546 17.4743 98.6196 17.8911 98.8922 18.1957Z" fill="white"/>
<path d="M98.3951 27.7342C100.303 27.5258 103.782 24.7203 105.802 23.0851C105.867 23.037 106.011 23.1332 105.947 23.1813C104.167 24.8646 100.159 28.616 97.5935 28.616C96.9361 28.616 96.1826 27.9908 96.0864 27.3335C96.0703 27.1731 96.0703 26.9647 96.1345 26.7082C96.2948 25.8425 97.0483 24.3836 98.4432 23.037C100.143 21.3537 102.243 20.2795 103.702 20.2795C104.183 20.2795 104.888 20.9849 104.888 21.2895C104.888 22.0751 103.878 22.8446 103.189 23.3576C103.141 23.4057 103.045 23.3576 103.093 23.2935C103.429 22.9568 104.279 21.3216 104.103 21.1773C101.89 21.2254 97.8179 25.9066 97.8179 27.3495C97.7859 27.7182 98.2027 27.7503 98.3951 27.7342Z" fill="white"/>
<path d="M106.187 23.983C106.107 24.3357 106.604 24.6724 106.812 24.8487C110.131 22.989 112.777 22.5241 113.049 22.5241C113.097 22.5241 113.178 22.5722 113.178 22.6203C113.37 22.6844 109.266 23.7586 107.005 25.1052C107.277 25.3136 107.79 25.9068 107.726 26.3557C107.438 27.7024 104.696 28.8085 103.349 28.8085C102.9 28.8085 102.66 28.4398 102.564 27.9749C102.628 27.0771 105.674 25.3457 106.396 25.0571C106.171 24.7686 104.937 24.0151 105.129 23.1013C105.466 21.5302 108.448 19.9751 110.276 19.9751C110.853 19.9751 111.125 20.921 111.061 21.5302C111.045 21.8187 109.73 23.0692 109.169 23.0692C109.153 23.0692 109.105 22.989 109.121 22.989C109.185 22.989 110.58 21.5302 110.612 21.1294C109.666 21.0332 106.46 23.0051 106.187 23.983ZM103.093 27.7504C103.894 27.526 106.476 26.1954 106.476 25.4098C105.225 26.1152 103.702 27.1573 103.093 27.7504Z" fill="white"/>
</svg>
