<svg width="28" height="28" viewBox="0 0 28 28" fill="none" xmlns="http://www.w3.org/2000/svg">
<g clip-path="url(#clip0)">
<path d="M19.6938 15.1093C17.9736 15.3032 16.8655 14.5814 16.2162 13.8902L13.0927 17.0137C13.3139 17.2414 13.5388 17.4468 13.7649 17.632L12.75 18.6468L12.4237 17.6827L10.2301 19.8763L9.07471 18.721L20.3758 7.41984L18.2802 5.32422L16.3916 7.21334L14.9764 5.79814L13.8205 6.95352L15.2357 8.36873L11.2074 12.3971L10.0645 11.2542L11.5685 9.74964L11.5565 9.73712L10.4131 8.59371L8.90857 10.0983L5.95555 13.0513L4.45154 14.5553L5.59495 15.6987L5.60692 15.7112L7.11148 14.2072L8.25434 15.3501L6.74923 16.8552L8.01246 18.1184L2.2998 23.8311L6.4682 28L9.38091 21.8668L10.4241 24.8606L13.7322 21.5525L13.3341 20.3738L15.1624 18.5456C15.6444 18.7895 16.1024 18.9579 16.5077 19.0739C17.3536 19.3158 18.0869 19.3659 18.5493 19.3659C18.8598 19.3659 19.0483 19.343 19.0668 19.3408L19.5865 19.2755L20.9418 14.9688L19.6938 15.1093ZM8.26692 13.0513L8.90917 12.4096L9.47459 12.975L8.83234 13.6167L8.26692 13.0513Z" fill="white"/>
<path d="M24.5448 0L19.9058 4.63898L21.0612 5.79436L25.7002 1.15593L24.5448 0Z" fill="white"/>
</g>
<defs>
<clipPath id="clip0">
<rect width="28" height="28" fill="white"/>
</clipPath>
</defs>
</svg>
